<mxfile host="Electron" modified="2023-06-04T05:40:25.071Z" agent="Mozilla/5.0 (Macintosh; Intel Mac OS X 10_15_7) AppleWebKit/537.36 (KHTML, like Gecko) draw.io/21.2.8 Chrome/112.0.5615.165 Electron/24.2.0 Safari/537.36" etag="3LwGdPrWmJloEnzRPxYO" version="21.2.8" type="device">
  <diagram name="Page-1" id="myjQk-wkhAcpDl-BsH8o">
    <mxGraphModel dx="1242" dy="808" grid="1" gridSize="10" guides="1" tooltips="1" connect="1" arrows="1" fold="1" page="1" pageScale="1" pageWidth="827" pageHeight="1169" math="0" shadow="0">
      <root>
        <mxCell id="0" />
        <mxCell id="1" parent="0" />
        <mxCell id="Rvj227l52RedUWt44L4D-11" style="edgeStyle=orthogonalEdgeStyle;orthogonalLoop=1;jettySize=auto;html=1;entryX=0;entryY=0.5;entryDx=0;entryDy=0;endArrow=block;endFill=1;strokeWidth=2;strokeColor=#B3B3B3;curved=1;" parent="1" source="Rvj227l52RedUWt44L4D-1" target="Rvj227l52RedUWt44L4D-5" edge="1">
          <mxGeometry relative="1" as="geometry" />
        </mxCell>
        <mxCell id="Rvj227l52RedUWt44L4D-16" style="edgeStyle=orthogonalEdgeStyle;orthogonalLoop=1;jettySize=auto;html=1;entryX=0;entryY=0.5;entryDx=0;entryDy=0;curved=1;arcSize=20;endArrow=none;endFill=0;dashed=1;strokeWidth=2;strokeColor=#B3B3B3;" parent="1" source="Rvj227l52RedUWt44L4D-1" target="Rvj227l52RedUWt44L4D-15" edge="1">
          <mxGeometry relative="1" as="geometry">
            <Array as="points">
              <mxPoint x="260" y="178" />
              <mxPoint x="260" y="374" />
            </Array>
          </mxGeometry>
        </mxCell>
        <mxCell id="Rvj227l52RedUWt44L4D-1" value="Wallet" style="swimlane;fontStyle=0;childLayout=stackLayout;horizontal=1;startSize=26;horizontalStack=0;resizeParent=1;resizeParentMax=0;resizeLast=0;collapsible=1;marginBottom=0;align=center;fontSize=14;fillColor=#e1d5e7;strokeColor=#9673a6;arcSize=10;rounded=1;" parent="1" vertex="1">
          <mxGeometry x="40" y="150" width="160" height="51" as="geometry" />
        </mxCell>
        <mxCell id="Rvj227l52RedUWt44L4D-2" value="System Program" style="text;strokeColor=#666666;fillColor=#f5f5f5;spacingLeft=4;spacingRight=4;overflow=hidden;rotatable=0;points=[[0,0.5],[1,0.5]];portConstraint=eastwest;fontSize=11;whiteSpace=wrap;html=1;align=center;fontFamily=Verdana;fontColor=#333333;" parent="Rvj227l52RedUWt44L4D-1" vertex="1">
          <mxGeometry y="26" width="160" height="25" as="geometry" />
        </mxCell>
        <mxCell id="Rvj227l52RedUWt44L4D-12" style="edgeStyle=orthogonalEdgeStyle;rounded=0;orthogonalLoop=1;jettySize=auto;html=1;entryX=0.5;entryY=0;entryDx=0;entryDy=0;strokeColor=#B3B3B3;endArrow=block;endFill=1;strokeWidth=2;" parent="1" source="Rvj227l52RedUWt44L4D-5" target="Rvj227l52RedUWt44L4D-6" edge="1">
          <mxGeometry relative="1" as="geometry" />
        </mxCell>
        <mxCell id="Rvj227l52RedUWt44L4D-5" value="PDA" style="rounded=1;whiteSpace=wrap;html=1;arcSize=50;absoluteArcSize=0;fillColor=#ffe6cc;strokeColor=#d79b00;" parent="1" vertex="1">
          <mxGeometry x="330" y="160" width="120" height="30" as="geometry" />
        </mxCell>
        <mxCell id="Rvj227l52RedUWt44L4D-6" value="User" style="swimlane;fontStyle=0;childLayout=stackLayout;horizontal=1;startSize=26;horizontalStack=0;resizeParent=1;resizeParentMax=0;resizeLast=0;collapsible=1;marginBottom=0;align=center;fontSize=14;fillColor=#ffe6cc;strokeColor=#d79b00;arcSize=10;rounded=1;" parent="1" vertex="1">
          <mxGeometry x="310" y="310" width="160" height="101" as="geometry" />
        </mxCell>
        <mxCell id="Rvj227l52RedUWt44L4D-7" value="CP" style="text;strokeColor=#666666;fillColor=#f5f5f5;spacingLeft=4;spacingRight=4;overflow=hidden;rotatable=0;points=[[0,0.5],[1,0.5]];portConstraint=eastwest;fontSize=11;whiteSpace=wrap;html=1;align=center;fontFamily=Verdana;fontColor=#333333;" parent="Rvj227l52RedUWt44L4D-6" vertex="1">
          <mxGeometry y="26" width="160" height="25" as="geometry" />
        </mxCell>
        <mxCell id="Rvj227l52RedUWt44L4D-15" value="Owner" style="text;spacingLeft=4;spacingRight=4;overflow=hidden;rotatable=0;points=[[0,0.5],[1,0.5]];portConstraint=eastwest;fontSize=11;whiteSpace=wrap;html=1;align=left;fontFamily=Verdana;" parent="Rvj227l52RedUWt44L4D-6" vertex="1">
          <mxGeometry y="51" width="160" height="25" as="geometry" />
        </mxCell>
        <mxCell id="Y7vdd_2MA1dPWRgWnuZq-1" value="&lt;b&gt;Region = SG&lt;/b&gt;" style="text;spacingLeft=4;spacingRight=4;overflow=hidden;rotatable=0;points=[[0,0.5],[1,0.5]];portConstraint=eastwest;fontSize=11;whiteSpace=wrap;html=1;align=left;fontFamily=Verdana;" vertex="1" parent="Rvj227l52RedUWt44L4D-6">
          <mxGeometry y="76" width="160" height="25" as="geometry" />
        </mxCell>
        <mxCell id="Rvj227l52RedUWt44L4D-13" value="Owner + CP" style="text;html=1;strokeColor=none;fillColor=none;align=center;verticalAlign=middle;whiteSpace=wrap;rounded=0;fontFamily=Verdana;fontColor=#B3B3B3;fontStyle=0;fontSize=11;" parent="1" vertex="1">
          <mxGeometry x="342" y="130" width="96" height="30" as="geometry" />
        </mxCell>
        <mxCell id="Rvj227l52RedUWt44L4D-35" style="edgeStyle=orthogonalEdgeStyle;shape=connector;curved=1;rounded=1;orthogonalLoop=1;jettySize=auto;html=1;entryX=0.5;entryY=1;entryDx=0;entryDy=0;labelBackgroundColor=default;strokeColor=#B3B3B3;strokeWidth=2;fontFamily=Helvetica;fontSize=11;fontColor=default;endArrow=block;endFill=1;" parent="1" source="Rvj227l52RedUWt44L4D-18" target="Rvj227l52RedUWt44L4D-32" edge="1">
          <mxGeometry relative="1" as="geometry" />
        </mxCell>
        <mxCell id="Rvj227l52RedUWt44L4D-67" style="edgeStyle=orthogonalEdgeStyle;shape=connector;curved=1;rounded=1;orthogonalLoop=1;jettySize=auto;html=1;labelBackgroundColor=default;strokeColor=#B3B3B3;strokeWidth=2;fontFamily=Helvetica;fontSize=11;fontColor=default;endArrow=block;endFill=1;entryX=0.5;entryY=0;entryDx=0;entryDy=0;" parent="1" source="Rvj227l52RedUWt44L4D-18" target="Rvj227l52RedUWt44L4D-60" edge="1">
          <mxGeometry relative="1" as="geometry">
            <mxPoint x="410" y="850" as="targetPoint" />
            <Array as="points" />
          </mxGeometry>
        </mxCell>
        <mxCell id="Rvj227l52RedUWt44L4D-18" value="Mint" style="swimlane;fontStyle=0;childLayout=stackLayout;horizontal=1;startSize=26;horizontalStack=0;resizeParent=1;resizeParentMax=0;resizeLast=0;collapsible=1;marginBottom=0;align=center;fontSize=14;fillColor=#dae8fc;strokeColor=#6c8ebf;arcSize=10;rounded=1;" parent="1" vertex="1">
          <mxGeometry x="320" y="610" width="160" height="176" as="geometry" />
        </mxCell>
        <mxCell id="Rvj227l52RedUWt44L4D-19" value="Token Program" style="text;strokeColor=#666666;fillColor=#f5f5f5;spacingLeft=4;spacingRight=4;overflow=hidden;rotatable=0;points=[[0,0.5],[1,0.5]];portConstraint=eastwest;fontSize=11;whiteSpace=wrap;html=1;align=center;fontFamily=Verdana;fontColor=#333333;" parent="Rvj227l52RedUWt44L4D-18" vertex="1">
          <mxGeometry y="26" width="160" height="25" as="geometry" />
        </mxCell>
        <mxCell id="Rvj227l52RedUWt44L4D-20" value="Mint Authority" style="text;spacingLeft=4;spacingRight=4;overflow=hidden;rotatable=0;points=[[0,0.5],[1,0.5]];portConstraint=eastwest;fontSize=11;whiteSpace=wrap;html=1;align=left;fontFamily=Verdana;fontStyle=2" parent="Rvj227l52RedUWt44L4D-18" vertex="1">
          <mxGeometry y="51" width="160" height="25" as="geometry" />
        </mxCell>
        <mxCell id="Rvj227l52RedUWt44L4D-21" value="&lt;b style=&quot;font-size: 11px;&quot;&gt;Supply = 1&lt;/b&gt;" style="text;spacingLeft=4;spacingRight=4;overflow=hidden;rotatable=0;points=[[0,0.5],[1,0.5]];portConstraint=eastwest;fontSize=11;whiteSpace=wrap;html=1;align=left;fontFamily=Verdana;" parent="Rvj227l52RedUWt44L4D-18" vertex="1">
          <mxGeometry y="76" width="160" height="25" as="geometry" />
        </mxCell>
        <mxCell id="Rvj227l52RedUWt44L4D-22" value="&lt;b style=&quot;font-size: 11px;&quot;&gt;Decimals = 0&lt;/b&gt;" style="text;spacingLeft=4;spacingRight=4;overflow=hidden;rotatable=0;points=[[0,0.5],[1,0.5]];portConstraint=eastwest;fontSize=11;whiteSpace=wrap;html=1;align=left;fontFamily=Verdana;" parent="Rvj227l52RedUWt44L4D-18" vertex="1">
          <mxGeometry y="101" width="160" height="25" as="geometry" />
        </mxCell>
        <mxCell id="Rvj227l52RedUWt44L4D-23" value="Is Initialized" style="text;spacingLeft=4;spacingRight=4;overflow=hidden;rotatable=0;points=[[0,0.5],[1,0.5]];portConstraint=eastwest;fontSize=11;whiteSpace=wrap;html=1;align=left;fontFamily=Verdana;" parent="Rvj227l52RedUWt44L4D-18" vertex="1">
          <mxGeometry y="126" width="160" height="25" as="geometry" />
        </mxCell>
        <mxCell id="Rvj227l52RedUWt44L4D-24" value="Freeze Authority" style="text;spacingLeft=4;spacingRight=4;overflow=hidden;rotatable=0;points=[[0,0.5],[1,0.5]];portConstraint=eastwest;fontSize=11;whiteSpace=wrap;html=1;align=left;fontFamily=Verdana;fontStyle=2" parent="Rvj227l52RedUWt44L4D-18" vertex="1">
          <mxGeometry y="151" width="160" height="25" as="geometry" />
        </mxCell>
        <mxCell id="Rvj227l52RedUWt44L4D-30" style="edgeStyle=orthogonalEdgeStyle;orthogonalLoop=1;jettySize=auto;html=1;endArrow=none;strokeColor=#B3B3B3;arcSize=20;endFill=0;dashed=1;strokeWidth=2;curved=1;" parent="1" source="Rvj227l52RedUWt44L4D-25" target="Rvj227l52RedUWt44L4D-20" edge="1">
          <mxGeometry relative="1" as="geometry">
            <mxPoint x="300" y="670" as="targetPoint" />
            <Array as="points">
              <mxPoint x="240" y="720" />
              <mxPoint x="240" y="676" />
            </Array>
          </mxGeometry>
        </mxCell>
        <mxCell id="Rvj227l52RedUWt44L4D-31" style="edgeStyle=orthogonalEdgeStyle;orthogonalLoop=1;jettySize=auto;html=1;endArrow=none;strokeColor=#B3B3B3;arcSize=20;endFill=0;dashed=1;strokeWidth=2;curved=1;" parent="1" source="Rvj227l52RedUWt44L4D-25" target="Rvj227l52RedUWt44L4D-24" edge="1">
          <mxGeometry relative="1" as="geometry">
            <mxPoint x="270" y="810" as="targetPoint" />
            <Array as="points">
              <mxPoint x="240" y="720" />
              <mxPoint x="240" y="774" />
            </Array>
          </mxGeometry>
        </mxCell>
        <mxCell id="Rvj227l52RedUWt44L4D-34" style="edgeStyle=orthogonalEdgeStyle;shape=connector;curved=1;rounded=1;orthogonalLoop=1;jettySize=auto;html=1;entryX=0;entryY=0.5;entryDx=0;entryDy=0;labelBackgroundColor=default;strokeColor=#B3B3B3;strokeWidth=2;fontFamily=Helvetica;fontSize=11;fontColor=default;endArrow=block;endFill=1;arcSize=20;" parent="1" source="Rvj227l52RedUWt44L4D-25" target="Rvj227l52RedUWt44L4D-32" edge="1">
          <mxGeometry relative="1" as="geometry">
            <Array as="points">
              <mxPoint x="120" y="495" />
            </Array>
          </mxGeometry>
        </mxCell>
        <mxCell id="Rvj227l52RedUWt44L4D-25" value="Wallet (Seller)" style="swimlane;fontStyle=0;childLayout=stackLayout;horizontal=1;startSize=26;horizontalStack=0;resizeParent=1;resizeParentMax=0;resizeLast=0;collapsible=1;marginBottom=0;align=center;fontSize=14;fillColor=#e1d5e7;strokeColor=#9673a6;arcSize=10;rounded=1;" parent="1" vertex="1">
          <mxGeometry x="40" y="696" width="160" height="51" as="geometry" />
        </mxCell>
        <mxCell id="Rvj227l52RedUWt44L4D-26" value="System Program" style="text;strokeColor=#666666;fillColor=#f5f5f5;spacingLeft=4;spacingRight=4;overflow=hidden;rotatable=0;points=[[0,0.5],[1,0.5]];portConstraint=eastwest;fontSize=11;whiteSpace=wrap;html=1;align=center;fontFamily=Verdana;fontColor=#333333;" parent="Rvj227l52RedUWt44L4D-25" vertex="1">
          <mxGeometry y="26" width="160" height="25" as="geometry" />
        </mxCell>
        <mxCell id="Rvj227l52RedUWt44L4D-43" style="edgeStyle=orthogonalEdgeStyle;shape=connector;curved=1;rounded=1;orthogonalLoop=1;jettySize=auto;html=1;entryX=0.5;entryY=0;entryDx=0;entryDy=0;labelBackgroundColor=default;strokeColor=#B3B3B3;strokeWidth=2;fontFamily=Helvetica;fontSize=11;fontColor=default;endArrow=block;endFill=1;" parent="1" source="Rvj227l52RedUWt44L4D-32" target="Rvj227l52RedUWt44L4D-36" edge="1">
          <mxGeometry relative="1" as="geometry" />
        </mxCell>
        <mxCell id="Rvj227l52RedUWt44L4D-32" value="PDA" style="rounded=1;whiteSpace=wrap;html=1;arcSize=50;absoluteArcSize=0;fillColor=#ffe6cc;strokeColor=#d79b00;" parent="1" vertex="1">
          <mxGeometry x="340" y="480" width="120" height="30" as="geometry" />
        </mxCell>
        <mxCell id="Rvj227l52RedUWt44L4D-33" value="Owner + CP + Mint" style="text;html=1;strokeColor=none;fillColor=none;align=center;verticalAlign=middle;whiteSpace=wrap;rounded=0;fontFamily=Verdana;fontColor=#B3B3B3;fontStyle=0;fontSize=11;" parent="1" vertex="1">
          <mxGeometry x="352" y="450" width="96" height="30" as="geometry" />
        </mxCell>
        <mxCell id="Rvj227l52RedUWt44L4D-36" value="ATA" style="swimlane;fontStyle=0;childLayout=stackLayout;horizontal=1;startSize=26;horizontalStack=0;resizeParent=1;resizeParentMax=0;resizeLast=0;collapsible=1;marginBottom=0;align=center;fontSize=14;fillColor=#ffe6cc;strokeColor=#d79b00;arcSize=10;rounded=1;" parent="1" vertex="1">
          <mxGeometry x="590" y="590" width="160" height="126" as="geometry" />
        </mxCell>
        <mxCell id="Rvj227l52RedUWt44L4D-37" value="&lt;font style=&quot;font-size: 11px;&quot;&gt;Associated Token Program&lt;/font&gt;" style="text;strokeColor=#666666;fillColor=#f5f5f5;spacingLeft=4;spacingRight=4;overflow=hidden;rotatable=0;points=[[0,0.5],[1,0.5]];portConstraint=eastwest;fontSize=12;whiteSpace=wrap;html=1;align=center;fontFamily=Verdana;fontColor=#333333;" parent="Rvj227l52RedUWt44L4D-36" vertex="1">
          <mxGeometry y="26" width="160" height="25" as="geometry" />
        </mxCell>
        <mxCell id="Rvj227l52RedUWt44L4D-38" value="&lt;span style=&quot;font-style: normal;&quot;&gt;Mint&lt;/span&gt;" style="text;spacingLeft=4;spacingRight=4;overflow=hidden;rotatable=0;points=[[0,0.5],[1,0.5]];portConstraint=eastwest;fontSize=11;whiteSpace=wrap;html=1;align=left;fontFamily=Verdana;fontStyle=2" parent="Rvj227l52RedUWt44L4D-36" vertex="1">
          <mxGeometry y="51" width="160" height="25" as="geometry" />
        </mxCell>
        <mxCell id="Rvj227l52RedUWt44L4D-39" value="&lt;span style=&quot;font-size: 11px;&quot;&gt;Owner&lt;/span&gt;" style="text;spacingLeft=4;spacingRight=4;overflow=hidden;rotatable=0;points=[[0,0.5],[1,0.5]];portConstraint=eastwest;fontSize=11;whiteSpace=wrap;html=1;align=left;fontFamily=Verdana;" parent="Rvj227l52RedUWt44L4D-36" vertex="1">
          <mxGeometry y="76" width="160" height="25" as="geometry" />
        </mxCell>
        <mxCell id="Rvj227l52RedUWt44L4D-40" value="&lt;span style=&quot;font-size: 11px;&quot;&gt;Amount&lt;/span&gt;" style="text;spacingLeft=4;spacingRight=4;overflow=hidden;rotatable=0;points=[[0,0.5],[1,0.5]];portConstraint=eastwest;fontSize=11;whiteSpace=wrap;html=1;align=left;fontFamily=Verdana;" parent="Rvj227l52RedUWt44L4D-36" vertex="1">
          <mxGeometry y="101" width="160" height="25" as="geometry" />
        </mxCell>
        <mxCell id="Rvj227l52RedUWt44L4D-48" style="edgeStyle=orthogonalEdgeStyle;shape=connector;curved=1;rounded=1;orthogonalLoop=1;jettySize=auto;html=1;dashed=1;labelBackgroundColor=default;strokeColor=#B3B3B3;strokeWidth=2;fontFamily=Helvetica;fontSize=11;fontColor=default;endArrow=none;endFill=0;" parent="1" source="Rvj227l52RedUWt44L4D-38" target="Rvj227l52RedUWt44L4D-18" edge="1">
          <mxGeometry relative="1" as="geometry" />
        </mxCell>
        <mxCell id="Rvj227l52RedUWt44L4D-50" value="CPRegion" style="swimlane;fontStyle=0;childLayout=stackLayout;horizontal=1;startSize=26;horizontalStack=0;resizeParent=1;resizeParentMax=0;resizeLast=0;collapsible=1;marginBottom=0;align=center;fontSize=14;fillColor=#ffe6cc;strokeColor=#d79b00;arcSize=10;rounded=1;" parent="1" vertex="1">
          <mxGeometry x="880" y="590" width="160" height="76" as="geometry" />
        </mxCell>
        <mxCell id="Rvj227l52RedUWt44L4D-51" value="CP" style="text;strokeColor=#666666;fillColor=#f5f5f5;spacingLeft=4;spacingRight=4;overflow=hidden;rotatable=0;points=[[0,0.5],[1,0.5]];portConstraint=eastwest;fontSize=11;whiteSpace=wrap;html=1;align=center;fontFamily=Verdana;fontColor=#333333;" parent="Rvj227l52RedUWt44L4D-50" vertex="1">
          <mxGeometry y="26" width="160" height="25" as="geometry" />
        </mxCell>
        <mxCell id="Rvj227l52RedUWt44L4D-52" value="&lt;b&gt;Region = SG&lt;/b&gt;" style="text;spacingLeft=4;spacingRight=4;overflow=hidden;rotatable=0;points=[[0,0.5],[1,0.5]];portConstraint=eastwest;fontSize=11;whiteSpace=wrap;html=1;align=left;fontFamily=Verdana;" parent="Rvj227l52RedUWt44L4D-50" vertex="1">
          <mxGeometry y="51" width="160" height="25" as="geometry" />
        </mxCell>
        <mxCell id="Rvj227l52RedUWt44L4D-55" style="edgeStyle=orthogonalEdgeStyle;shape=connector;curved=1;rounded=1;orthogonalLoop=1;jettySize=auto;html=1;dashed=1;labelBackgroundColor=default;strokeColor=#B3B3B3;strokeWidth=2;fontFamily=Helvetica;fontSize=11;fontColor=default;endArrow=none;endFill=0;" parent="1" source="Rvj227l52RedUWt44L4D-39" target="Rvj227l52RedUWt44L4D-50" edge="1">
          <mxGeometry relative="1" as="geometry" />
        </mxCell>
        <mxCell id="Rvj227l52RedUWt44L4D-56" value="CP owns on behalf of wallet (burns, etc...)" style="text;html=1;strokeColor=none;fillColor=none;align=center;verticalAlign=middle;whiteSpace=wrap;rounded=0;fontSize=11;fontFamily=Helvetica;fontColor=default;" parent="1" vertex="1">
          <mxGeometry x="760" y="680" width="130" height="51" as="geometry" />
        </mxCell>
        <mxCell id="Rvj227l52RedUWt44L4D-59" style="edgeStyle=orthogonalEdgeStyle;shape=connector;curved=1;rounded=1;orthogonalLoop=1;jettySize=auto;html=1;entryX=0.5;entryY=0;entryDx=0;entryDy=0;labelBackgroundColor=default;strokeColor=#B3B3B3;strokeWidth=2;fontFamily=Helvetica;fontSize=11;fontColor=default;endArrow=block;endFill=1;" parent="1" source="Rvj227l52RedUWt44L4D-57" target="Rvj227l52RedUWt44L4D-50" edge="1">
          <mxGeometry relative="1" as="geometry" />
        </mxCell>
        <mxCell id="Rvj227l52RedUWt44L4D-57" value="PDA" style="rounded=1;whiteSpace=wrap;html=1;arcSize=50;absoluteArcSize=0;fillColor=#ffe6cc;strokeColor=#d79b00;" parent="1" vertex="1">
          <mxGeometry x="900" y="465" width="120" height="30" as="geometry" />
        </mxCell>
        <mxCell id="Rvj227l52RedUWt44L4D-58" value="CP + &quot;token&quot; + &quot;SG&quot;" style="text;html=1;strokeColor=none;fillColor=none;align=center;verticalAlign=middle;whiteSpace=wrap;rounded=0;fontFamily=Verdana;fontColor=#B3B3B3;fontStyle=0;fontSize=11;" parent="1" vertex="1">
          <mxGeometry x="912" y="435" width="96" height="30" as="geometry" />
        </mxCell>
        <mxCell id="Rvj227l52RedUWt44L4D-68" style="edgeStyle=orthogonalEdgeStyle;shape=connector;curved=1;rounded=1;orthogonalLoop=1;jettySize=auto;html=1;entryX=0.5;entryY=0;entryDx=0;entryDy=0;labelBackgroundColor=default;strokeColor=#B3B3B3;strokeWidth=2;fontFamily=Helvetica;fontSize=11;fontColor=default;endArrow=block;endFill=1;" parent="1" source="Rvj227l52RedUWt44L4D-60" target="Rvj227l52RedUWt44L4D-61" edge="1">
          <mxGeometry relative="1" as="geometry" />
        </mxCell>
        <mxCell id="Rvj227l52RedUWt44L4D-60" value="PDA" style="rounded=1;whiteSpace=wrap;html=1;arcSize=50;absoluteArcSize=0;fillColor=#ffe6cc;strokeColor=#d79b00;" parent="1" vertex="1">
          <mxGeometry x="340" y="860" width="120" height="30" as="geometry" />
        </mxCell>
        <mxCell id="Rvj227l52RedUWt44L4D-61" value="Metadata" style="swimlane;fontStyle=0;childLayout=stackLayout;horizontal=1;startSize=26;horizontalStack=0;resizeParent=1;resizeParentMax=0;resizeLast=0;collapsible=1;marginBottom=0;align=center;fontSize=14;fillColor=#ffe6cc;strokeColor=#d79b00;arcSize=10;rounded=1;" parent="1" vertex="1">
          <mxGeometry x="320" y="960" width="160" height="151" as="geometry" />
        </mxCell>
        <mxCell id="Rvj227l52RedUWt44L4D-62" value="&lt;font style=&quot;font-size: 11px;&quot;&gt;CP&lt;/font&gt;" style="text;strokeColor=#666666;fillColor=#f5f5f5;spacingLeft=4;spacingRight=4;overflow=hidden;rotatable=0;points=[[0,0.5],[1,0.5]];portConstraint=eastwest;fontSize=12;whiteSpace=wrap;html=1;align=center;fontFamily=Verdana;fontColor=#333333;" parent="Rvj227l52RedUWt44L4D-61" vertex="1">
          <mxGeometry y="26" width="160" height="25" as="geometry" />
        </mxCell>
        <mxCell id="Rvj227l52RedUWt44L4D-63" value="&lt;span style=&quot;font-style: normal;&quot;&gt;Mint&lt;/span&gt;" style="text;spacingLeft=4;spacingRight=4;overflow=hidden;rotatable=0;points=[[0,0.5],[1,0.5]];portConstraint=eastwest;fontSize=11;whiteSpace=wrap;html=1;align=left;fontFamily=Verdana;fontStyle=2" parent="Rvj227l52RedUWt44L4D-61" vertex="1">
          <mxGeometry y="51" width="160" height="25" as="geometry" />
        </mxCell>
        <mxCell id="Rvj227l52RedUWt44L4D-64" value="&lt;span style=&quot;font-size: 11px;&quot;&gt;Name&lt;/span&gt;" style="text;spacingLeft=4;spacingRight=4;overflow=hidden;rotatable=0;points=[[0,0.5],[1,0.5]];portConstraint=eastwest;fontSize=11;whiteSpace=wrap;html=1;align=left;fontFamily=Verdana;" parent="Rvj227l52RedUWt44L4D-61" vertex="1">
          <mxGeometry y="76" width="160" height="25" as="geometry" />
        </mxCell>
        <mxCell id="Rvj227l52RedUWt44L4D-65" value="&lt;span style=&quot;font-size: 11px;&quot;&gt;Symbol&lt;/span&gt;" style="text;spacingLeft=4;spacingRight=4;overflow=hidden;rotatable=0;points=[[0,0.5],[1,0.5]];portConstraint=eastwest;fontSize=11;whiteSpace=wrap;html=1;align=left;fontFamily=Verdana;" parent="Rvj227l52RedUWt44L4D-61" vertex="1">
          <mxGeometry y="101" width="160" height="25" as="geometry" />
        </mxCell>
        <mxCell id="Rvj227l52RedUWt44L4D-69" value="&lt;span style=&quot;font-size: 11px;&quot;&gt;URI&lt;/span&gt;" style="text;spacingLeft=4;spacingRight=4;overflow=hidden;rotatable=0;points=[[0,0.5],[1,0.5]];portConstraint=eastwest;fontSize=11;whiteSpace=wrap;html=1;align=left;fontFamily=Verdana;" parent="Rvj227l52RedUWt44L4D-61" vertex="1">
          <mxGeometry y="126" width="160" height="25" as="geometry" />
        </mxCell>
        <mxCell id="Rvj227l52RedUWt44L4D-66" value="CP + Mint + &quot;metadata&quot;" style="text;html=1;strokeColor=none;fillColor=none;align=center;verticalAlign=middle;whiteSpace=wrap;rounded=0;fontFamily=Verdana;fontColor=#B3B3B3;fontStyle=0;fontSize=11;" parent="1" vertex="1">
          <mxGeometry x="460" y="860" width="96" height="30" as="geometry" />
        </mxCell>
        <mxCell id="Rvj227l52RedUWt44L4D-72" value="Mint" style="swimlane;fontStyle=0;childLayout=stackLayout;horizontal=1;startSize=26;horizontalStack=0;resizeParent=1;resizeParentMax=0;resizeLast=0;collapsible=1;marginBottom=0;align=center;fontSize=14;fillColor=#dae8fc;strokeColor=#6c8ebf;arcSize=10;rounded=1;" parent="1" vertex="1">
          <mxGeometry x="60" y="980" width="160" height="76" as="geometry" />
        </mxCell>
        <mxCell id="Rvj227l52RedUWt44L4D-73" value="Token Program" style="text;strokeColor=#666666;fillColor=#f5f5f5;spacingLeft=4;spacingRight=4;overflow=hidden;rotatable=0;points=[[0,0.5],[1,0.5]];portConstraint=eastwest;fontSize=11;whiteSpace=wrap;html=1;align=center;fontFamily=Verdana;fontColor=#333333;" parent="Rvj227l52RedUWt44L4D-72" vertex="1">
          <mxGeometry y="26" width="160" height="25" as="geometry" />
        </mxCell>
        <mxCell id="Rvj227l52RedUWt44L4D-78" value="..." style="text;spacingLeft=4;spacingRight=4;overflow=hidden;rotatable=0;points=[[0,0.5],[1,0.5]];portConstraint=eastwest;fontSize=11;whiteSpace=wrap;html=1;align=left;fontFamily=Verdana;fontStyle=2" parent="Rvj227l52RedUWt44L4D-72" vertex="1">
          <mxGeometry y="51" width="160" height="25" as="geometry" />
        </mxCell>
        <mxCell id="Rvj227l52RedUWt44L4D-79" style="edgeStyle=orthogonalEdgeStyle;shape=connector;curved=1;rounded=1;orthogonalLoop=1;jettySize=auto;html=1;entryX=1;entryY=0.25;entryDx=0;entryDy=0;dashed=1;labelBackgroundColor=default;strokeColor=#B3B3B3;strokeWidth=2;fontFamily=Helvetica;fontSize=11;fontColor=default;endArrow=none;endFill=0;" parent="1" source="Rvj227l52RedUWt44L4D-63" target="Rvj227l52RedUWt44L4D-72" edge="1">
          <mxGeometry relative="1" as="geometry" />
        </mxCell>
      </root>
    </mxGraphModel>
  </diagram>
</mxfile>
